<svg version="1.2" xmlns="http://www.w3.org/2000/svg" viewBox="0 0 1096 932" width="1096"
    height="932">
    <style>.a{fill:#e1051407}</style>
    <path class="a"
        d="m279.9 557.1c3.1-20.1-10.7-36.4-30.8-36.4h-203.2c-20.1 0-38.9 16.3-42 36.4-3.1 20.1 10.7 36.4 30.8 36.4h203.2c20.1 0 38.9-16.3 42-36.4z" />
    <path class="a"
        d="m192.6 230.5h113.8c20.1 0 38.9-16.3 42-36.4 3.1-20.1-10.7-36.4-30.8-36.4h-113.9c-20.1 0-38.9 16.3-42 36.4-3 20.1 10.8 36.4 30.9 36.4z" />
    <path class="a"
        d="m1032 528.7l-308.4-122.4v-0.1c-31.4-13.2-49.7-46.2-42.5-84.7 9.1-47.8 56.5-84.5 104.3-84.5h284.9c29.8 0 25.1-10.6 25.1-10.6-30.7-133.5-145.8-227.3-298.6-223.6h-249c-46.8 0-91.2 38.1-99.1 85.2l-38 226.4h-137.7c-20.1 0-38.9 16.3-42 36.4-3 20.2 10.8 36.5 30.9 36.5h135.7l-48.8 318h-234.2c-20.1 0-38.9 16.3-42 36.4-3.1 20.1 10.7 36.4 30.8 36.4h234.2l-0.9 5.8c-12.4 81 39.8 146.7 116.6 146.7h29.3c76.8 0 149.1-65.7 161.5-146.7l6.2-40c-28.9-7.4-58.6-16.5-80.8-26.3-5.5-2.4-2.7-11.1 3.6-10.9l85.9 3.3h213.1q0.6 0 1.3 0h0.2c38.3 0.1 77.1-16.9 98.6-52.8l64.9-109.4c4.5-7.5 2.1-16.3-5.1-19.1z" />
    <path fill-rule="evenodd" class="a"
        d="m1095 291.5l-33.5 178c-2.7 13.9-18.1 23.3-30.5 18.5l-291.3-114.3c-20.4-8.6-30.9-31-24.4-55.6 7.2-27.7 35.3-47.8 63.1-47.8h299.4c11.6 0 19.4 9.6 17.2 21.2zm-295.8 34.9c0-13.6-11-24.5-24.5-24.5-13.6 0-24.5 10.9-24.5 24.5 0 13.5 10.9 24.4 24.5 24.4 13.5 0 24.5-10.9 24.5-24.4z" />
</svg>